<svg width="64" height="74" viewBox="0 0 64 74" fill="none" xmlns="http://www.w3.org/2000/svg">
<circle cx="16" cy="16" r="16" transform="rotate(180 16 16)" fill="#3B4623"/>
<mask id="mask0_66_1984" style="mask-type:alpha" maskUnits="userSpaceOnUse" x="15" y="0" width="33" height="32">
<circle cx="31.9355" cy="16" r="16" fill="#D9D9D9"/>
</mask>
<g mask="url(#mask0_66_1984)">
<rect x="32" width="15.9357" height="32" fill="#3B4623"/>
</g>
<mask id="mask1_66_1984" style="mask-type:alpha" maskUnits="userSpaceOnUse" x="32" y="0" width="32" height="32">
<circle cx="48" cy="16" r="16" fill="#D9D9D9"/>
</mask>
<g mask="url(#mask1_66_1984)">
<rect x="48.0645" width="15.9357" height="32" fill="#3B4623"/>
</g>
<circle cx="16" cy="16" r="16" transform="matrix(-1 1.74846e-07 1.74846e-07 1 32 42)" fill="#3B4623"/>
<mask id="mask2_66_1984" style="mask-type:alpha" maskUnits="userSpaceOnUse" x="15" y="42" width="33" height="32">
<circle cx="16" cy="16" r="16" transform="matrix(1 -2.62268e-07 -2.62268e-07 -1 15.9355 74)" fill="#D9D9D9"/>
</mask>
<g mask="url(#mask2_66_1984)">
<rect width="15.9357" height="32" transform="matrix(1 -2.62268e-07 -2.62268e-07 -1 32 74)" fill="#3B4623"/>
</g>
<mask id="mask3_66_1984" style="mask-type:alpha" maskUnits="userSpaceOnUse" x="32" y="42" width="32" height="32">
<circle cx="16" cy="16" r="16" transform="matrix(1 -2.62268e-07 -2.62268e-07 -1 32 74)" fill="#D9D9D9"/>
</mask>
<g mask="url(#mask3_66_1984)">
<rect width="15.9357" height="32" transform="matrix(1 -2.62268e-07 -2.62268e-07 -1 48.0645 74)" fill="#3B4623"/>
</g>
</svg>
