<svg xmlns="http://www.w3.org/2000/svg" width="55" height="60" fill="none"><path fill="#fff" d="M.57 31.83h5.135c0 1.4.38 2.695 1.14 3.883.761 1.23 1.839 2.207 3.233 2.928 1.395.764 3.043 1.146 4.944 1.146 1.479 0 2.937-.36 4.374-1.082 1.436-.722 2.62-1.868 3.55-3.438.971-1.528 1.457-3.522 1.457-5.984V.637h5.07v28.646c0 3.353-.697 6.154-2.091 8.403-1.394 2.292-3.19 4.01-5.388 5.157a14.87 14.87 0 0 1-6.972 1.718c-2.831 0-5.345-.53-7.543-1.591-2.155-1.061-3.845-2.568-5.07-4.52C1.183 36.54.57 34.333.57 31.83ZM0 15.278C0 12.095.655 9.38 1.965 7.13c1.31-2.292 3.063-4.053 5.26-5.284C9.424.616 11.833 0 14.453 0c2.45 0 4.584.615 6.401 1.846 1.817 1.23 3.233 2.992 4.247 5.284 1.057 2.25 1.585 4.965 1.585 8.148 0 3.14-.528 5.857-1.585 8.149-1.014 2.291-2.43 4.053-4.247 5.283-1.817 1.231-3.95 1.846-6.401 1.846-2.62 0-5.029-.615-7.226-1.846-2.198-1.23-3.951-2.992-5.261-5.283C.655 21.135 0 18.419 0 15.278Zm5.134 0c0 2.25.444 4.16 1.331 5.73.93 1.57 2.155 2.758 3.677 3.564 1.52.807 3.169 1.21 4.944 1.21 1.478 0 2.936-.403 4.373-1.21 1.437-.806 2.62-1.994 3.55-3.564.93-1.57 1.394-3.48 1.394-5.73 0-1.697-.275-3.183-.824-4.456-.55-1.316-1.289-2.419-2.219-3.31a9.332 9.332 0 0 0-2.979-2.037c-1.098-.467-2.197-.7-3.296-.7-1.774 0-3.422.403-4.944 1.209-1.52.806-2.746 1.995-3.676 3.565-.887 1.57-1.33 3.48-1.33 5.73Z"/><path fill="#fff" d="M53.465 47.268H48.33c0 1.4-.38 2.695-1.14 3.883-.761 1.231-1.838 2.207-3.233 2.929-1.395.764-3.042 1.146-4.944 1.146-1.479 0-2.937-.361-4.373-1.083-1.437-.721-2.62-1.867-3.55-3.437-.972-1.528-1.458-3.523-1.458-5.984V16.075h-5.07v28.647c0 3.352.697 6.154 2.091 8.403 1.395 2.291 3.19 4.01 5.388 5.156A14.87 14.87 0 0 0 39.013 60c2.831 0 5.345-.53 7.543-1.592 2.155-1.06 3.845-2.567 5.07-4.52 1.226-1.909 1.839-4.116 1.839-6.62Zm.57-16.551c0-3.183-.655-5.9-1.965-8.149-1.31-2.291-3.063-4.053-5.26-5.283-2.198-1.231-4.607-1.846-7.227-1.846-2.45 0-4.584.615-6.401 1.846-1.817 1.23-3.233 2.992-4.247 5.283-1.056 2.25-1.585 4.966-1.585 8.149 0 3.14.528 5.856 1.585 8.148 1.014 2.292 2.43 4.053 4.247 5.284 1.817 1.23 3.95 1.846 6.401 1.846 2.62 0 5.029-.615 7.226-1.846 2.198-1.23 3.951-2.992 5.261-5.284s1.965-5.008 1.965-8.148Zm-5.134 0c0 2.25-.444 4.159-1.331 5.73-.93 1.57-2.155 2.758-3.676 3.564-1.522.806-3.17 1.21-4.944 1.21-1.48 0-2.937-.404-4.374-1.21-1.437-.806-2.62-1.995-3.55-3.565-.929-1.57-1.394-3.48-1.394-5.73 0-1.697.275-3.182.824-4.455.55-1.316 1.289-2.42 2.219-3.31a9.332 9.332 0 0 1 2.979-2.038c1.098-.466 2.197-.7 3.296-.7 1.774 0 3.422.403 4.944 1.21 1.52.806 2.746 1.994 3.676 3.565.887 1.57 1.331 3.48 1.331 5.729Z"/></svg>