<svg width="16" height="16" viewBox="0 0 16 16" fill="none" xmlns="http://www.w3.org/2000/svg">
<path d="M14.025 10.7168L11.908 10.4748C11.6592 10.4457 11.4071 10.4733 11.1705 10.5555C10.9339 10.6378 10.719 10.7726 10.542 10.9498L9.008 12.4828C6.6427 11.2797 4.72012 9.35712 3.517 6.99181L5.058 5.44981C5.417 5.09181 5.592 4.59181 5.533 4.08281L5.292 1.98281C5.24464 1.57622 5.04942 1.20124 4.7435 0.929258C4.43759 0.657273 4.04234 0.507273 3.633 0.507814H2.192C1.25 0.507814 0.467001 1.29181 0.525001 2.23281C0.967001 9.34981 6.658 15.0328 13.767 15.4748C14.708 15.5328 15.492 14.7498 15.492 13.8078V12.3668C15.4941 11.9593 15.3454 11.5653 15.0746 11.2608C14.8038 10.9562 14.43 10.7624 14.025 10.7168Z" fill="#0B0E05"/>
</svg>
