<svg width="139" height="118" viewBox="0 0 139 118" fill="none" xmlns="http://www.w3.org/2000/svg">
<path d="M83.6574 115.855C93.0957 107.273 100.389 97.6897 105.537 87.1055C110.685 76.5212 113.259 66.7952 113.259 57.9273C110.971 59.0715 107.825 59.6436 103.821 59.6436C96.0988 59.6436 89.6636 56.9261 84.5154 51.4909C79.3673 46.0558 76.7932 39.1903 76.7932 30.8945C76.7932 21.7406 79.7963 14.303 85.8025 8.58181C91.5226 2.8606 98.8159 -3.51301e-06 107.682 -2.7379e-06C117.406 -1.88777e-06 125.129 3.00364 130.849 9.01091C136.283 15.0182 139 22.5988 139 31.7527C139 49.7746 135.711 66.08 129.133 80.6691C122.269 95.2582 113.259 106.701 102.105 114.996C99.8169 116.999 96.3848 118 91.8086 118C88.0905 118 85.3735 117.285 83.6574 115.855ZM6.86418 115.855C16.3025 107.273 23.5957 97.6897 28.7438 87.1055C33.892 76.5212 36.466 66.7951 36.466 57.9273C34.178 59.0715 31.0319 59.6436 27.0278 59.6436C19.3056 59.6436 12.8704 56.9261 7.72222 51.4909C2.57407 46.0558 6.88976e-06 39.1903 7.615e-06 30.8945C8.41526e-06 21.7406 3.00309 14.303 9.00926 8.5818C14.7294 2.86059 22.0226 -1.02265e-05 30.8889 -9.45137e-06C40.6132 -8.60125e-06 48.3354 3.00363 54.0556 9.0109C59.4897 15.0182 62.2068 22.5988 62.2068 31.7527C62.2068 49.7746 58.9177 66.08 52.3395 80.6691C45.4753 95.2582 36.466 106.701 25.3117 114.996C23.0237 116.999 19.5916 118 15.0154 118C11.2973 118 8.58025 117.285 6.86418 115.855Z" fill="#242C12"/>
</svg>
