<svg width="85" height="115" viewBox="0 0 85 115" fill="none" xmlns="http://www.w3.org/2000/svg">
<path d="M0.89918 49.9544H8.9918C8.9918 52.1524 9.59125 54.1839 10.7902 56.0489C11.9891 57.9804 13.6875 59.5124 15.8855 60.6447C18.0835 61.8436 20.6811 62.443 23.6784 62.443C26.0096 62.443 28.3075 61.8769 30.5721 60.7446C32.8367 59.6123 34.7017 57.8139 36.167 55.3495C37.699 52.9517 38.4649 49.8212 38.4649 45.9581V0.999091H46.4576V45.9581C46.4576 51.2199 45.3586 55.6159 43.1606 59.146C40.9626 62.7428 38.1319 65.4403 34.6684 67.2387C31.2049 69.037 27.5415 69.9362 23.6784 69.9362C19.2158 69.9362 15.2528 69.1036 11.7892 67.4385C8.39235 65.7733 5.72811 63.4088 3.79654 60.345C1.86497 57.3477 0.89918 53.8842 0.89918 49.9544ZM0 23.9781C0 18.9827 1.03239 14.7199 3.09718 11.1898C5.16196 7.59307 7.9261 4.82893 11.3896 2.89736C14.8531 0.965786 18.6497 0 22.7792 0C26.6424 0 30.006 0.965786 32.87 2.89736C35.7341 4.82893 37.9654 7.59307 39.5639 11.1898C41.2291 14.7199 42.0616 18.9827 42.0616 23.9781C42.0616 28.907 41.2291 33.1697 39.5639 36.7665C37.9654 40.3632 35.7341 43.1273 32.87 45.0589C30.006 46.9905 26.6424 47.9563 22.7792 47.9563C18.6497 47.9563 14.8531 46.9905 11.3896 45.0589C7.9261 43.1273 5.16196 40.3632 3.09718 36.7665C1.03239 33.1697 0 28.907 0 23.9781ZM8.09262 23.9781C8.09262 27.5082 8.79198 30.5055 10.1907 32.9699C11.656 35.4343 13.5876 37.2993 15.9854 38.5648C18.3832 39.8303 20.9809 40.4631 23.7783 40.4631C26.1095 40.4631 28.4074 39.8303 30.672 38.5648C32.9366 37.2993 34.8016 35.4343 36.2669 32.9699C37.7323 30.5055 38.4649 27.5082 38.4649 23.9781C38.4649 21.3139 38.032 18.9827 37.1661 16.9845C36.3002 14.9197 35.1346 13.188 33.6693 11.7892C32.2706 10.3905 30.7053 9.32483 28.9736 8.59216C27.2418 7.8595 25.5101 7.49317 23.7783 7.49317C20.9809 7.49317 18.3832 8.12592 15.9854 9.39143C13.5876 10.6569 11.656 12.5219 10.1907 14.9863C8.79198 17.4507 8.09262 20.448 8.09262 23.9781Z" fill="white"/>
<path d="M83.9701 74.4081H75.8775C75.8775 76.6061 75.278 78.6375 74.0791 80.5025C72.8802 82.4341 71.1817 83.966 68.9838 85.0983C66.7858 86.2972 64.1881 86.8967 61.1909 86.8967C58.8597 86.8967 56.5617 86.3305 54.2971 85.1982C52.0325 84.0659 50.1676 82.2676 48.7023 79.8031C47.1703 77.4053 46.4043 74.2748 46.4043 70.4117V25.4527H38.4116V70.4117C38.4116 75.6736 39.5106 80.0696 41.7086 83.5997C43.9066 87.1964 46.7374 89.8939 50.2009 91.6923C53.6644 93.4907 57.3277 94.3898 61.1909 94.3898C65.6535 94.3898 69.6165 93.5573 73.08 91.8921C76.4769 90.227 79.1412 87.8625 81.0727 84.7986C83.0043 81.8013 83.9701 78.3378 83.9701 74.4081ZM84.8693 48.4317C84.8693 43.4363 83.8369 39.1735 81.7721 35.6434C79.7073 32.0467 76.9432 29.2825 73.4797 27.351C70.0161 25.4194 66.2196 24.4536 62.09 24.4536C58.2269 24.4536 54.8633 25.4194 51.9992 27.351C49.1352 29.2825 46.9039 32.0467 45.3053 35.6434C43.6402 39.1735 42.8076 43.4363 42.8076 48.4317C42.8076 53.3606 43.6402 57.6234 45.3053 61.2201C46.9039 64.8168 49.1352 67.581 51.9992 69.5125C54.8633 71.4441 58.2269 72.4099 62.09 72.4099C66.2196 72.4099 70.0161 71.4441 73.4797 69.5125C76.9432 67.581 79.7073 64.8168 81.7721 61.2201C83.8369 57.6234 84.8693 53.3606 84.8693 48.4317ZM76.7766 48.4317C76.7766 51.9619 76.0773 54.9591 74.6786 57.4235C73.2132 59.888 71.2817 61.7529 68.8838 63.0184C66.486 64.284 63.8884 64.9167 61.091 64.9167C58.7597 64.9167 56.4618 64.284 54.1972 63.0184C51.9326 61.7529 50.0677 59.888 48.6023 57.4235C47.137 54.9591 46.4043 51.9619 46.4043 48.4317C46.4043 45.7675 46.8373 43.4363 47.7032 41.4381C48.569 39.3733 49.7346 37.6416 51.2 36.2429C52.5987 34.8441 54.1639 33.7784 55.8957 33.0458C57.6274 32.3131 59.3592 31.9468 61.091 31.9468C63.8884 31.9468 66.486 32.5795 68.8838 33.8451C71.2817 35.1106 73.2132 36.9755 74.6786 39.4399C76.0773 41.9044 76.7766 44.9016 76.7766 48.4317Z" fill="white"/>
<path d="M0.708026 112.167H1.4586C1.4586 112.573 1.55302 112.937 1.74184 113.258C1.93067 113.579 2.19502 113.834 2.5349 114.023C2.88423 114.211 3.28548 114.306 3.73866 114.306C4.14463 114.306 4.527 114.211 4.88577 114.023C5.24454 113.834 5.53721 113.536 5.7638 113.13C5.99983 112.734 6.11785 112.224 6.11785 111.601V105.228H6.85426V111.601C6.85426 112.347 6.70793 112.97 6.41525 113.47C6.12257 113.98 5.7402 114.362 5.26814 114.617C4.79608 114.872 4.28625 115 3.73866 115C3.14386 115 2.61515 114.882 2.15253 114.646C1.69936 114.41 1.34531 114.075 1.0904 113.64C0.835483 113.215 0.708026 112.724 0.708026 112.167ZM0.552246 108.485C0.552246 107.777 0.693864 107.173 0.977101 106.673C1.26034 106.163 1.63799 105.771 2.11005 105.497C2.59155 105.223 3.12026 105.086 3.69617 105.086C4.26265 105.086 4.74887 105.238 5.15484 105.54C5.56082 105.832 5.8771 106.234 6.10369 106.743C6.33972 107.253 6.45773 107.834 6.45773 108.485C6.45773 109.127 6.33972 109.708 6.10369 110.227C5.8771 110.737 5.56082 111.143 5.15484 111.445C4.74887 111.738 4.26265 111.884 3.69617 111.884C3.12026 111.884 2.59155 111.747 2.11005 111.473C1.63799 111.2 1.26034 110.808 0.977101 110.298C0.693864 109.788 0.552246 109.184 0.552246 108.485ZM1.30282 108.485C1.30282 109.052 1.4114 109.538 1.62855 109.944C1.85514 110.35 2.15725 110.662 2.5349 110.879C2.92199 111.086 3.34213 111.19 3.79531 111.19C4.20128 111.19 4.57893 111.072 4.92825 110.836C5.28702 110.6 5.57498 110.279 5.79213 109.873C6.00927 109.458 6.11785 108.986 6.11785 108.457C6.11785 108.079 6.05648 107.73 5.93375 107.409C5.81101 107.088 5.63635 106.805 5.40976 106.559C5.19261 106.314 4.94242 106.125 4.65918 105.993C4.38538 105.851 4.09743 105.78 3.79531 105.78C3.34213 105.78 2.92199 105.889 2.5349 106.106C2.15725 106.314 1.85514 106.621 1.62855 107.027C1.4114 107.433 1.30282 107.919 1.30282 108.485Z" fill="white"/>
<path d="M9.75202 105.228V111.743H9.0156V105.228H9.75202ZM11.9188 106.092C11.7772 105.988 11.6403 105.913 11.5081 105.865C11.3854 105.809 11.239 105.78 11.0691 105.78C10.7481 105.78 10.4884 105.87 10.2902 106.049C10.1013 106.229 9.96445 106.47 9.87948 106.772C9.79451 107.074 9.75202 107.409 9.75202 107.777H9.41214C9.41214 107.258 9.49239 106.8 9.65289 106.404C9.81339 105.998 10.0305 105.677 10.3043 105.441C10.5876 105.204 10.8991 105.086 11.239 105.086C11.4467 105.086 11.6403 105.12 11.8196 105.186C12.0085 105.242 12.1784 105.341 12.3295 105.483L11.9188 106.092Z" fill="white"/>
<path d="M15.822 111.884C15.2367 111.884 14.7174 111.738 14.2642 111.445C13.811 111.152 13.4523 110.751 13.1879 110.241C12.933 109.722 12.8056 109.132 12.8056 108.471C12.8056 107.81 12.9377 107.225 13.2021 106.715C13.4664 106.205 13.8347 105.809 14.3067 105.525C14.7788 105.233 15.3216 105.086 15.9353 105.086C16.5301 105.086 17.0494 105.223 17.4931 105.497C17.9463 105.771 18.2956 106.153 18.5411 106.644C18.796 107.126 18.9235 107.683 18.9235 108.315C18.9235 108.372 18.9188 108.433 18.9093 108.499C18.9093 108.566 18.9046 108.622 18.8951 108.669H13.2729V108.032H18.3428L18.0313 108.471C18.0502 108.424 18.069 108.363 18.0879 108.287C18.1162 108.202 18.1304 108.122 18.1304 108.046C18.1304 107.603 18.0313 107.206 17.833 106.857C17.6442 106.507 17.3846 106.234 17.0541 106.035C16.7237 105.837 16.3507 105.738 15.9353 105.738C15.4538 105.738 15.0337 105.851 14.6749 106.078C14.3256 106.295 14.0518 106.606 13.8535 107.012C13.6553 107.409 13.5561 107.881 13.5561 108.429C13.5561 108.986 13.6505 109.472 13.8394 109.887C14.0376 110.303 14.3114 110.624 14.6608 110.85C15.0195 111.077 15.4349 111.19 15.907 111.19C16.4074 111.19 16.8417 111.082 17.2099 110.864C17.5875 110.647 17.9227 110.307 18.2154 109.845L18.8102 110.227C18.442 110.794 18.0124 111.214 17.5214 111.488C17.0399 111.752 16.4735 111.884 15.822 111.884Z" fill="white"/>
<path d="M23.0412 111.884C22.4559 111.884 21.9366 111.738 21.4834 111.445C21.0303 111.152 20.6715 110.751 20.4071 110.241C20.1522 109.722 20.0248 109.132 20.0248 108.471C20.0248 107.81 20.157 107.225 20.4213 106.715C20.6857 106.205 21.0539 105.809 21.5259 105.525C21.998 105.233 22.5409 105.086 23.1545 105.086C23.7493 105.086 24.2686 105.223 24.7123 105.497C25.1655 105.771 25.5148 106.153 25.7603 106.644C26.0152 107.126 26.1427 107.683 26.1427 108.315C26.1427 108.372 26.138 108.433 26.1285 108.499C26.1285 108.566 26.1238 108.622 26.1144 108.669H20.4921V108.032H25.5621L25.2505 108.471C25.2694 108.424 25.2883 108.363 25.3071 108.287C25.3355 108.202 25.3496 108.122 25.3496 108.046C25.3496 107.603 25.2505 107.206 25.0522 106.857C24.8634 106.507 24.6038 106.234 24.2733 106.035C23.9429 105.837 23.57 105.738 23.1545 105.738C22.673 105.738 22.2529 105.851 21.8941 106.078C21.5448 106.295 21.271 106.606 21.0728 107.012C20.8745 107.409 20.7754 107.881 20.7754 108.429C20.7754 108.986 20.8698 109.472 21.0586 109.887C21.2569 110.303 21.5307 110.624 21.88 110.85C22.2387 111.077 22.6542 111.19 23.1262 111.19C23.6266 111.19 24.0609 111.082 24.4291 110.864C24.8068 110.647 25.1419 110.307 25.4346 109.845L26.0294 110.227C25.6612 110.794 25.2316 111.214 24.7407 111.488C24.2592 111.752 23.6927 111.884 23.0412 111.884Z" fill="white"/>
<path d="M31.9882 107.551C31.9882 106.994 31.8655 106.559 31.62 106.248C31.3745 105.936 30.9874 105.78 30.4587 105.78C30.0905 105.78 29.7601 105.87 29.4674 106.049C29.1842 106.219 28.9576 106.455 28.7876 106.758C28.6271 107.06 28.5469 107.4 28.5469 107.777V111.743H27.8105V105.228H28.5469V106.588C28.7263 106.116 28.9953 105.747 29.3541 105.483C29.7223 105.219 30.1472 105.086 30.6287 105.086C31.3084 105.086 31.8277 105.304 32.1865 105.738C32.5452 106.163 32.7246 106.739 32.7246 107.466V111.743H31.9882V107.551Z" fill="white"/>
<path d="M38.7956 112.167H39.5462C39.5462 112.573 39.6406 112.937 39.8294 113.258C40.0183 113.579 40.2826 113.834 40.6225 114.023C40.9718 114.211 41.3731 114.306 41.8263 114.306C42.2322 114.306 42.6146 114.211 42.9734 114.023C43.3321 113.834 43.6248 113.536 43.8514 113.13C44.0874 112.734 44.2055 112.224 44.2055 111.601V105.228H44.9419V111.601C44.9419 112.347 44.7955 112.97 44.5028 113.47C44.2102 113.98 43.8278 114.362 43.3557 114.617C42.8837 114.872 42.3739 115 41.8263 115C41.2315 115 40.7028 114.882 40.2401 114.646C39.787 114.41 39.4329 114.075 39.178 113.64C38.9231 113.215 38.7956 112.724 38.7956 112.167ZM38.6399 108.485C38.6399 107.777 38.7815 107.173 39.0647 106.673C39.3479 106.163 39.7256 105.771 40.1977 105.497C40.6792 105.223 41.2079 105.086 41.7838 105.086C42.3503 105.086 42.8365 105.238 43.2424 105.54C43.6484 105.832 43.9647 106.234 44.1913 106.743C44.4273 107.253 44.5453 107.834 44.5453 108.485C44.5453 109.127 44.4273 109.708 44.1913 110.227C43.9647 110.737 43.6484 111.143 43.2424 111.445C42.8365 111.738 42.3503 111.884 41.7838 111.884C41.2079 111.884 40.6792 111.747 40.1977 111.473C39.7256 111.2 39.3479 110.808 39.0647 110.298C38.7815 109.788 38.6399 109.184 38.6399 108.485ZM39.3904 108.485C39.3904 109.052 39.499 109.538 39.7161 109.944C39.9427 110.35 40.2449 110.662 40.6225 110.879C41.0096 111.086 41.4297 111.19 41.8829 111.19C42.2889 111.19 42.6665 111.072 43.0159 110.836C43.3746 110.6 43.6626 110.279 43.8797 109.873C44.0969 109.458 44.2055 108.986 44.2055 108.457C44.2055 108.079 44.1441 107.73 44.0214 107.409C43.8986 107.088 43.7239 106.805 43.4974 106.559C43.2802 106.314 43.03 106.125 42.7468 105.993C42.473 105.851 42.185 105.78 41.8829 105.78C41.4297 105.78 41.0096 105.889 40.6225 106.106C40.2449 106.314 39.9427 106.621 39.7161 107.027C39.499 107.433 39.3904 107.919 39.3904 108.485Z" fill="white"/>
<path d="M47.2165 109.788C47.2165 110.109 47.2873 110.378 47.4289 110.595C47.58 110.813 47.7783 110.978 48.0237 111.091C48.2786 111.195 48.5572 111.247 48.8593 111.247C49.2275 111.247 49.5626 111.162 49.8648 110.992C50.1763 110.822 50.4265 110.572 50.6153 110.241C50.8042 109.911 50.8986 109.505 50.8986 109.023L51.0685 109.647C51.0685 110.156 50.9458 110.577 50.7003 110.907C50.4548 111.237 50.148 111.483 49.7798 111.643C49.4116 111.804 49.0387 111.884 48.661 111.884C48.2928 111.884 47.9388 111.809 47.5989 111.658C47.259 111.497 46.9852 111.266 46.7775 110.964C46.5698 110.662 46.4659 110.279 46.4659 109.817C46.4659 109.184 46.6831 108.684 47.1174 108.315C47.5611 107.947 48.1606 107.763 48.9159 107.763C49.3408 107.763 49.7043 107.815 50.0064 107.919C50.3179 108.013 50.5729 108.122 50.7711 108.245C50.9694 108.367 51.111 108.471 51.196 108.556V109.023C50.875 108.797 50.5304 108.632 50.1622 108.528C49.8034 108.414 49.4258 108.358 49.0292 108.358C48.661 108.358 48.34 108.41 48.0662 108.514C47.8019 108.617 47.5942 108.773 47.4431 108.981C47.292 109.189 47.2165 109.458 47.2165 109.788ZM47.2448 106.418L46.8766 105.865C47.1221 105.695 47.4384 105.525 47.8255 105.356C48.222 105.176 48.7082 105.086 49.2841 105.086C49.7751 105.086 50.1952 105.167 50.5445 105.327C50.8939 105.488 51.1629 105.719 51.3518 106.021C51.5406 106.323 51.635 106.691 51.635 107.126V111.743H50.8986V107.225C50.8986 107.036 50.8703 106.857 50.8136 106.687C50.757 106.507 50.6626 106.347 50.5304 106.205C50.4076 106.064 50.2377 105.95 50.0205 105.865C49.8034 105.78 49.539 105.738 49.2275 105.738C48.9065 105.738 48.6185 105.776 48.3636 105.851C48.1087 105.927 47.8868 106.016 47.698 106.12C47.5186 106.224 47.3676 106.323 47.2448 106.418Z" fill="white"/>
<path d="M54.395 105.228V111.743H53.6586V105.228H54.395ZM56.5618 106.092C56.4202 105.988 56.2833 105.913 56.1511 105.865C56.0283 105.809 55.882 105.78 55.7121 105.78C55.3911 105.78 55.1314 105.87 54.9332 106.049C54.7443 106.229 54.6074 106.47 54.5225 106.772C54.4375 107.074 54.395 107.409 54.395 107.777H54.0551C54.0551 107.258 54.1354 106.8 54.2959 106.404C54.4564 105.998 54.6735 105.677 54.9473 105.441C55.2306 105.204 55.5421 105.086 55.882 105.086C56.0897 105.086 56.2832 105.12 56.4626 105.186C56.6515 105.242 56.8214 105.341 56.9725 105.483L56.5618 106.092Z" fill="white"/>
<path d="M63.2216 100.696H63.958V111.743H63.2216V100.696ZM57.656 108.485C57.656 107.777 57.7976 107.173 58.0808 106.673C58.3641 106.163 58.7417 105.771 59.2138 105.497C59.6953 105.223 60.224 105.086 60.7999 105.086C61.3664 105.086 61.8526 105.238 62.2586 105.54C62.6646 105.832 62.9808 106.234 63.2074 106.743C63.4435 107.253 63.5615 107.834 63.5615 108.485C63.5615 109.127 63.4435 109.708 63.2074 110.227C62.9808 110.737 62.6646 111.143 62.2586 111.445C61.8526 111.738 61.3664 111.884 60.7999 111.884C60.224 111.884 59.6953 111.747 59.2138 111.473C58.7417 111.2 58.3641 110.808 58.0808 110.298C57.7976 109.788 57.656 109.184 57.656 108.485ZM58.4066 108.485C58.4066 109.052 58.5151 109.538 58.7323 109.944C58.9589 110.35 59.261 110.662 59.6386 110.879C60.0257 111.086 60.4459 111.19 60.8991 111.19C61.305 111.19 61.6827 111.072 62.032 110.836C62.3908 110.6 62.6787 110.279 62.8959 109.873C63.113 109.467 63.2216 109.005 63.2216 108.485C63.2216 107.966 63.113 107.503 62.8959 107.097C62.6787 106.691 62.3908 106.37 62.032 106.134C61.6827 105.898 61.305 105.78 60.8991 105.78C60.4459 105.78 60.0257 105.889 59.6386 106.106C59.261 106.314 58.9589 106.621 58.7323 107.027C58.5151 107.433 58.4066 107.919 58.4066 108.485Z" fill="white"/>
<path d="M68.5694 111.884C67.984 111.884 67.4647 111.738 67.0116 111.445C66.5584 111.152 66.1996 110.751 65.9352 110.241C65.6803 109.722 65.5529 109.132 65.5529 108.471C65.5529 107.81 65.6851 107.225 65.9494 106.715C66.2138 106.205 66.582 105.809 67.054 105.525C67.5261 105.233 68.069 105.086 68.6826 105.086C69.2774 105.086 69.7967 105.223 70.2404 105.497C70.6936 105.771 71.0429 106.153 71.2884 106.644C71.5433 107.126 71.6708 107.683 71.6708 108.315C71.6708 108.372 71.6661 108.433 71.6566 108.499C71.6566 108.566 71.6519 108.622 71.6425 108.669H66.0202V108.032H71.0902L70.7786 108.471C70.7975 108.424 70.8164 108.363 70.8352 108.287C70.8636 108.202 70.8777 108.122 70.8777 108.046C70.8777 107.603 70.7786 107.206 70.5803 106.857C70.3915 106.507 70.1319 106.234 69.8014 106.035C69.471 105.837 69.0981 105.738 68.6826 105.738C68.2011 105.738 67.781 105.851 67.4222 106.078C67.0729 106.295 66.7991 106.606 66.6009 107.012C66.4026 107.409 66.3035 107.881 66.3035 108.429C66.3035 108.986 66.3979 109.472 66.5867 109.887C66.785 110.303 67.0587 110.624 67.4081 110.85C67.7668 111.077 68.1823 111.19 68.6543 111.19C69.1547 111.19 69.589 111.082 69.9572 110.864C70.3349 110.647 70.67 110.307 70.9627 109.845L71.5575 110.227C71.1893 110.794 70.7597 111.214 70.2688 111.488C69.7873 111.752 69.2208 111.884 68.5694 111.884Z" fill="white"/>
<path d="M77.5163 107.551C77.5163 106.994 77.3936 106.559 77.1481 106.248C76.9026 105.936 76.5155 105.78 75.9868 105.78C75.6186 105.78 75.2882 105.87 74.9955 106.049C74.7123 106.219 74.4857 106.455 74.3157 106.758C74.1552 107.06 74.075 107.4 74.075 107.777V111.743H73.3386V105.228H74.075V106.588C74.2544 106.116 74.5234 105.747 74.8822 105.483C75.2504 105.219 75.6753 105.086 76.1568 105.086C76.8365 105.086 77.3558 105.304 77.7146 105.738C78.0733 106.163 78.2527 106.739 78.2527 107.466V111.743H77.5163V107.551Z" fill="white"/>
<path d="M80.4745 109.887C80.5689 110.123 80.6963 110.341 80.8568 110.539C81.0173 110.737 81.2203 110.898 81.4658 111.02C81.7207 111.143 82.0181 111.204 82.358 111.204C82.7545 111.204 83.0708 111.105 83.3068 110.907C83.5523 110.699 83.675 110.416 83.675 110.057C83.675 109.793 83.5995 109.576 83.4485 109.406C83.2974 109.226 83.0991 109.08 82.8537 108.967C82.6082 108.844 82.3438 108.735 82.0606 108.641C81.7585 108.528 81.4658 108.4 81.1826 108.259C80.8993 108.117 80.6633 107.928 80.4745 107.692C80.2951 107.447 80.2054 107.13 80.2054 106.743C80.2054 106.375 80.2951 106.068 80.4745 105.823C80.6633 105.577 80.9041 105.398 81.1967 105.285C81.4988 105.162 81.8198 105.101 82.1597 105.101C82.5279 105.101 82.8584 105.162 83.1511 105.285C83.4437 105.407 83.6939 105.568 83.9016 105.766C84.1094 105.964 84.2699 106.186 84.3831 106.432L83.7742 106.8C83.6231 106.517 83.4107 106.271 83.1369 106.064C82.8631 105.856 82.5091 105.752 82.0748 105.752C81.7538 105.752 81.48 105.832 81.2534 105.993C81.0362 106.153 80.9277 106.389 80.9277 106.701C80.9277 106.956 80.9985 107.168 81.1401 107.338C81.2817 107.499 81.4705 107.631 81.7066 107.735C81.9426 107.839 82.1928 107.938 82.4571 108.032C82.8065 108.164 83.1275 108.311 83.4201 108.471C83.7223 108.632 83.963 108.83 84.1424 109.066C84.3312 109.302 84.4256 109.604 84.4256 109.972C84.4256 110.539 84.2274 111.001 83.8308 111.36C83.4437 111.709 82.9386 111.884 82.3155 111.884C81.8623 111.884 81.4658 111.804 81.1259 111.643C80.7955 111.483 80.5264 111.275 80.3187 111.02C80.1204 110.765 79.9741 110.501 79.8797 110.227L80.4745 109.887Z" fill="white"/>
</svg>
