<svg width="30" height="30" viewBox="0 0 30 30" fill="none" xmlns="http://www.w3.org/2000/svg">
<path d="M15 27.5C13.2708 27.5 11.6458 27.1719 10.125 26.5156C8.60417 25.8594 7.28125 24.9688 6.15625 23.8438C5.03125 22.7188 4.14062 21.3958 3.48438 19.875C2.82812 18.3542 2.5 16.7292 2.5 15C2.5 13.2708 2.82812 11.6458 3.48438 10.125C4.14062 8.60417 5.03125 7.28125 6.15625 6.15625C7.28125 5.03125 8.60417 4.14062 10.125 3.48438C11.6458 2.82812 13.2708 2.5 15 2.5C16.7292 2.5 18.3542 2.82812 19.875 3.48438C21.3958 4.14062 22.7188 5.03125 23.8438 6.15625C24.9688 7.28125 25.8594 8.60417 26.5156 10.125C27.1719 11.6458 27.5 13.2708 27.5 15C27.5 16.7292 27.1719 18.3542 26.5156 19.875C25.8594 21.3958 24.9688 22.7188 23.8438 23.8438C22.7188 24.9688 21.3958 25.8594 19.875 26.5156C18.3542 27.1719 16.7292 27.5 15 27.5ZM15 25C17.7917 25 20.1562 24.0312 22.0938 22.0938C24.0312 20.1562 25 17.7917 25 15C25 12.2083 24.0312 9.84375 22.0938 7.90625C20.1562 5.96875 17.7917 5 15 5C12.2083 5 9.84375 5.96875 7.90625 7.90625C5.96875 9.84375 5 12.2083 5 15C5 17.7917 5.96875 20.1562 7.90625 22.0938C9.84375 24.0312 12.2083 25 15 25Z" fill="white"/>
<path d="M19.1931 16.8827L17.7083 16.713C17.5338 16.6925 17.3569 16.7119 17.191 16.7696C17.025 16.8273 16.8743 16.9218 16.7502 17.0461L15.6742 18.1214C14.0152 17.2775 12.6668 15.929 11.8229 14.27L12.9037 13.1885C13.1555 12.9374 13.2783 12.5867 13.2369 12.2297L13.0679 10.7568C13.0347 10.4716 12.8977 10.2086 12.6832 10.0178C12.4686 9.82706 12.1914 9.72185 11.9043 9.72223H10.8936C10.2329 9.72223 9.68367 10.2721 9.72435 10.9321C10.0344 15.9239 14.026 19.9099 19.0121 20.2199C19.6722 20.2606 20.222 19.7114 20.222 19.0507V18.04C20.2235 17.7542 20.1192 17.4779 19.9293 17.2642C19.7394 17.0506 19.4772 16.9147 19.1931 16.8827Z" fill="white"/>
</svg>
