<svg width="25" height="26" viewBox="0 0 25 26" fill="none" xmlns="http://www.w3.org/2000/svg">
<path d="M11.25 19.4339H13.75V11.7152H11.25V19.4339ZM12.5 9.14228C12.8542 9.14228 13.151 9.01899 13.3906 8.77242C13.6302 8.52585 13.75 8.22032 13.75 7.85583C13.75 7.49134 13.6302 7.1858 13.3906 6.93923C13.151 6.69267 12.8542 6.56938 12.5 6.56938C12.1458 6.56938 11.849 6.69267 11.6094 6.93923C11.3698 7.1858 11.25 7.49134 11.25 7.85583C11.25 8.22032 11.3698 8.52585 11.6094 8.77242C11.849 9.01899 12.1458 9.14228 12.5 9.14228ZM12.5 25.8661C10.7708 25.8661 9.14583 25.5284 7.625 24.853C6.10417 24.1776 4.78125 23.261 3.65625 22.1032C2.53125 20.9454 1.64062 19.5839 0.984375 18.0188C0.328125 16.4536 0 14.7812 0 13.0016C0 11.222 0.328125 9.54965 0.984375 7.98447C1.64062 6.4193 2.53125 5.05781 3.65625 3.9C4.78125 2.7422 6.10417 1.82561 7.625 1.15022C9.14583 0.474838 10.7708 0.137146 12.5 0.137146C14.2292 0.137146 15.8542 0.474838 17.375 1.15022C18.8958 1.82561 20.2188 2.7422 21.3438 3.9C22.4688 5.05781 23.3594 6.4193 24.0156 7.98447C24.6719 9.54965 25 11.222 25 13.0016C25 14.7812 24.6719 16.4536 24.0156 18.0188C23.3594 19.5839 22.4688 20.9454 21.3438 22.1032C20.2188 23.261 18.8958 24.1776 17.375 24.853C15.8542 25.5284 14.2292 25.8661 12.5 25.8661ZM12.5 23.2932C15.2917 23.2932 17.6562 22.2962 19.5938 20.3022C21.5312 18.3082 22.5 15.8747 22.5 13.0016C22.5 10.1286 21.5312 7.69502 19.5938 5.70103C17.6562 3.70704 15.2917 2.71004 12.5 2.71004C9.70833 2.71004 7.34375 3.70704 5.40625 5.70103C3.46875 7.69502 2.5 10.1286 2.5 13.0016C2.5 15.8747 3.46875 18.3082 5.40625 20.3022C7.34375 22.2962 9.70833 23.2932 12.5 23.2932Z" fill="white"/>
</svg>
