<svg width="64" height="74" viewBox="0 0 64 74" fill="none" xmlns="http://www.w3.org/2000/svg">
<circle cx="16" cy="16" r="16" transform="rotate(180 16 16)" fill="#525E36"/>
<mask id="mask0_66_1967" style="mask-type:alpha" maskUnits="userSpaceOnUse" x="15" y="0" width="33" height="32">
<circle cx="31.9355" cy="16" r="16" fill="#D9D9D9"/>
</mask>
<g mask="url(#mask0_66_1967)">
<rect x="32" width="15.9357" height="32" fill="#525E36"/>
</g>
<mask id="mask1_66_1967" style="mask-type:alpha" maskUnits="userSpaceOnUse" x="32" y="0" width="32" height="32">
<circle cx="48" cy="16" r="16" fill="#D9D9D9"/>
</mask>
<g mask="url(#mask1_66_1967)">
<rect x="48.0645" width="15.9357" height="32" fill="#525E36"/>
</g>
<circle cx="48" cy="58" r="16" fill="#525E36"/>
<mask id="mask2_66_1967" style="mask-type:alpha" maskUnits="userSpaceOnUse" x="16" y="42" width="33" height="32">
<circle cx="32.0645" cy="58" r="16" transform="rotate(-180 32.0645 58)" fill="#D9D9D9"/>
</mask>
<g mask="url(#mask2_66_1967)">
<rect x="32" y="74" width="15.9357" height="32" transform="rotate(-180 32 74)" fill="#525E36"/>
</g>
<mask id="mask3_66_1967" style="mask-type:alpha" maskUnits="userSpaceOnUse" x="0" y="42" width="32" height="32">
<circle cx="16" cy="58" r="16" transform="rotate(-180 16 58)" fill="#D9D9D9"/>
</mask>
<g mask="url(#mask3_66_1967)">
<rect x="15.9355" y="74" width="15.9357" height="32" transform="rotate(-180 15.9355 74)" fill="#525E36"/>
</g>
</svg>
