<svg width="369" height="499" viewBox="0 0 369 499" fill="none" xmlns="http://www.w3.org/2000/svg">
<path d="M3.90166 216.759H39.0166C39.0166 226.296 41.6177 235.111 46.8199 243.203C52.0221 251.585 59.3919 258.232 68.9293 263.145C78.4667 268.347 89.7382 270.949 102.744 270.949C112.859 270.949 122.83 268.492 132.656 263.579C142.483 258.666 150.575 250.862 156.933 240.169C163.581 229.764 166.904 216.181 166.904 199.418V4.33519H201.586V199.418C201.586 222.25 196.817 241.325 187.28 256.642C177.742 272.249 165.459 283.954 150.431 291.757C135.402 299.561 119.506 303.462 102.744 303.462C83.3799 303.462 66.1837 299.85 51.1551 292.624C36.4155 285.399 24.855 275.139 16.4737 261.845C8.09233 248.839 3.90166 233.811 3.90166 216.759ZM0 104.044C0 82.3684 4.47968 63.8716 13.4391 48.554C22.3984 32.9473 34.3924 20.9534 49.421 12.572C64.4496 4.19067 80.9233 0 98.842 0C115.605 0 130.2 4.19067 142.627 12.572C155.055 20.9534 164.737 32.9473 171.673 48.554C178.898 63.8716 182.511 82.3684 182.511 104.044C182.511 125.431 178.898 143.928 171.673 159.535C164.737 175.141 155.055 187.135 142.627 195.517C130.2 203.898 115.605 208.089 98.842 208.089C80.9233 208.089 64.4496 203.898 49.421 195.517C34.3924 187.135 22.3984 175.141 13.4391 159.535C4.47968 143.928 0 125.431 0 104.044ZM35.1149 104.044C35.1149 119.362 38.1496 132.367 44.2188 143.061C50.5771 153.754 58.9584 161.847 69.3628 167.338C79.7673 172.829 91.0387 175.575 103.177 175.575C113.293 175.575 123.264 172.829 133.09 167.338C142.916 161.847 151.009 153.754 157.367 143.061C163.725 132.367 166.904 119.362 166.904 104.044C166.904 92.4838 165.026 82.3684 161.269 73.698C157.511 64.7386 152.454 57.2243 146.095 51.1551C140.026 45.0858 133.234 40.4617 125.72 37.2825C118.206 34.1034 110.692 32.5138 103.177 32.5138C91.0387 32.5138 79.7673 35.2594 69.3628 40.7507C58.9584 46.2419 50.5771 54.3342 44.2188 65.0277C38.1496 75.7211 35.1149 88.7266 35.1149 104.044Z" fill="white"/>
<path d="M364.357 322.866H329.242C329.242 332.403 326.641 341.218 321.439 349.31C316.237 357.691 308.867 364.339 299.329 369.252C289.792 374.454 278.521 377.055 265.515 377.055C255.4 377.055 245.429 374.599 235.602 369.686C225.776 364.772 217.684 356.969 211.325 346.276C204.678 335.871 201.354 322.288 201.354 305.525V110.442H166.673V305.525C166.673 328.357 171.442 347.432 180.979 362.749C190.516 378.356 202.799 390.061 217.828 397.864C232.857 405.667 248.752 409.569 265.515 409.569C284.879 409.569 302.075 405.956 317.104 398.731C331.843 391.506 343.404 381.246 351.785 367.951C360.166 354.946 364.357 339.917 364.357 322.866ZM368.259 210.151C368.259 188.475 363.779 169.978 354.82 154.661C345.86 139.054 333.866 127.06 318.838 118.679C303.809 110.297 287.335 106.107 269.417 106.107C252.654 106.107 238.059 110.297 225.631 118.679C213.204 127.06 203.522 139.054 196.586 154.661C189.36 169.978 185.748 188.475 185.748 210.151C185.748 231.538 189.36 250.035 196.586 265.641C203.522 281.248 213.204 293.242 225.631 301.623C238.059 310.005 252.654 314.195 269.417 314.195C287.335 314.195 303.809 310.005 318.838 301.623C333.866 293.242 345.86 281.248 354.82 265.641C363.779 250.035 368.259 231.538 368.259 210.151ZM333.144 210.151C333.144 225.469 330.109 238.474 324.04 249.168C317.682 259.861 309.3 267.953 298.896 273.445C288.491 278.936 277.22 281.681 265.081 281.681C254.966 281.681 244.995 278.936 235.169 273.445C225.342 267.953 217.25 259.861 210.892 249.168C204.533 238.474 201.354 225.469 201.354 210.151C201.354 198.591 203.233 188.475 206.99 179.805C210.747 170.845 215.805 163.331 222.163 157.262C228.232 151.193 235.024 146.568 242.539 143.389C250.053 140.21 257.567 138.621 265.081 138.621C277.22 138.621 288.491 141.366 298.896 146.857C309.3 152.349 317.682 160.441 324.04 171.134C330.109 181.828 333.144 194.833 333.144 210.151Z" fill="white"/>
<path d="M3.07219 486.71H6.32905C6.32905 488.472 6.73871 490.049 7.55805 491.442C8.37738 492.835 9.52445 493.941 10.9993 494.76C12.515 495.579 14.2561 495.989 16.2225 495.989C17.9841 495.989 19.6432 495.579 21.2 494.76C22.7567 493.941 24.0267 492.65 25.0099 490.889C26.034 489.168 26.5461 486.956 26.5461 484.252V456.599H29.7415V484.252C29.7415 487.488 29.1065 490.192 27.8366 492.363C26.5666 494.576 24.9075 496.235 22.8591 497.341C20.8108 498.447 18.5986 499 16.2225 499C13.6416 499 11.3475 498.488 9.3401 497.464C7.3737 496.44 5.83745 494.985 4.73134 493.101C3.62524 491.257 3.07219 489.127 3.07219 486.71ZM2.39624 470.733C2.39624 467.66 3.01074 465.039 4.23974 462.867C5.46874 460.655 7.10741 458.955 9.15575 457.767C11.2451 456.579 13.5392 455.985 16.0382 455.985C18.4962 455.985 20.606 456.64 22.3675 457.951C24.1291 459.221 25.5015 460.962 26.4847 463.175C27.5088 465.387 28.0209 467.906 28.0209 470.733C28.0209 473.519 27.5088 476.038 26.4847 478.291C25.5015 480.504 24.1291 482.265 22.3675 483.576C20.606 484.846 18.4962 485.481 16.0382 485.481C13.5392 485.481 11.2451 484.887 9.15575 483.699C7.10741 482.511 5.46874 480.811 4.23974 478.599C3.01074 476.386 2.39624 473.765 2.39624 470.733ZM5.6531 470.733C5.6531 473.191 6.12421 475.301 7.06645 477.062C8.04965 478.824 9.36058 480.176 10.9993 481.118C12.6789 482.019 14.5019 482.47 16.4683 482.47C18.2299 482.47 19.8685 481.958 21.3843 480.934C22.9411 479.91 24.1905 478.517 25.1328 476.755C26.075 474.953 26.5461 472.904 26.5461 470.61C26.5461 468.971 26.2798 467.456 25.7473 466.063C25.2147 464.67 24.4568 463.441 23.4736 462.376C22.5314 461.311 21.4458 460.491 20.2168 459.918C19.0287 459.303 17.7792 458.996 16.4683 458.996C14.5019 458.996 12.6789 459.467 10.9993 460.409C9.36058 461.311 8.04965 462.642 7.06645 464.404C6.12421 466.165 5.6531 468.275 5.6531 470.733Z" fill="white"/>
<path d="M42.3153 456.599V484.866H39.1199V456.599H42.3153ZM51.7171 460.348C51.1026 459.897 50.5086 459.57 49.9351 459.365C49.4025 459.119 48.7675 458.996 48.0301 458.996C46.6373 458.996 45.5107 459.385 44.6504 460.164C43.831 460.942 43.237 461.987 42.8683 463.298C42.4996 464.608 42.3153 466.063 42.3153 467.66H40.8405C40.8405 465.407 41.1887 463.42 41.8851 461.7C42.5816 459.938 43.5238 458.545 44.7118 457.521C45.9408 456.497 47.2927 455.985 48.7675 455.985C49.6688 455.985 50.5086 456.128 51.287 456.415C52.1063 456.661 52.8437 457.091 53.4992 457.706L51.7171 460.348Z" fill="white"/>
<path d="M68.6538 485.481C66.1139 485.481 63.8607 484.846 61.8943 483.576C59.9279 482.306 58.3712 480.565 57.2241 478.353C56.118 476.1 55.565 473.539 55.565 470.672C55.565 467.804 56.1385 465.264 57.2856 463.052C58.4326 460.84 60.0303 459.119 62.0787 457.89C64.127 456.62 66.4826 455.985 69.1454 455.985C71.7263 455.985 73.9795 456.579 75.905 457.767C77.8714 458.955 79.3871 460.614 80.4523 462.744C81.5584 464.834 82.1114 467.251 82.1114 469.996C82.1114 470.241 82.0909 470.508 82.05 470.794C82.05 471.081 82.0295 471.327 81.9885 471.532H57.5928V468.767H79.5919L78.2401 470.672C78.322 470.467 78.4039 470.2 78.4859 469.873C78.6088 469.504 78.6702 469.156 78.6702 468.828C78.6702 466.903 78.2401 465.182 77.3798 463.666C76.5604 462.15 75.4338 460.962 74 460.102C72.5662 459.242 70.948 458.812 69.1454 458.812C67.0561 458.812 65.2331 459.303 63.6764 460.286C62.1606 461.229 60.9726 462.581 60.1123 464.342C59.252 466.063 58.8218 468.111 58.8218 470.487C58.8218 472.904 59.2315 475.014 60.0508 476.817C60.9111 478.619 62.0992 480.012 63.6149 480.995C65.1717 481.978 66.9742 482.47 69.0225 482.47C71.1938 482.47 73.0782 481.999 74.6759 481.057C76.3146 480.114 77.7689 478.64 79.0389 476.632L81.6198 478.291C80.0221 480.749 78.1581 482.572 76.0278 483.76C73.9385 484.907 71.4805 485.481 68.6538 485.481Z" fill="white"/>
<path d="M99.979 485.481C97.439 485.481 95.1859 484.846 93.2195 483.576C91.2531 482.306 89.6963 480.565 88.5493 478.353C87.4432 476.1 86.8901 473.539 86.8901 470.672C86.8901 467.804 87.4636 465.264 88.6107 463.052C89.7578 460.84 91.3555 459.119 93.4038 457.89C95.4522 456.62 97.8077 455.985 100.471 455.985C103.051 455.985 105.305 456.579 107.23 457.767C109.196 458.955 110.712 460.614 111.777 462.744C112.883 464.834 113.437 467.251 113.437 469.996C113.437 470.241 113.416 470.508 113.375 470.794C113.375 471.081 113.355 471.327 113.314 471.532H88.918V468.767H110.917L109.565 470.672C109.647 470.467 109.729 470.2 109.811 469.873C109.934 469.504 109.995 469.156 109.995 468.828C109.995 466.903 109.565 465.182 108.705 463.666C107.886 462.15 106.759 460.962 105.325 460.102C103.891 459.242 102.273 458.812 100.471 458.812C98.3813 458.812 96.5583 459.303 95.0015 460.286C93.4858 461.229 92.2977 462.581 91.4374 464.342C90.5771 466.063 90.147 468.111 90.147 470.487C90.147 472.904 90.5566 475.014 91.376 476.817C92.2363 478.619 93.4243 480.012 94.9401 480.995C96.4968 481.978 98.2993 482.47 100.348 482.47C102.519 482.47 104.403 481.999 106.001 481.057C107.64 480.114 109.094 478.64 110.364 476.632L112.945 478.291C111.347 480.749 109.483 482.572 107.353 483.76C105.264 484.907 102.806 485.481 99.979 485.481Z" fill="white"/>
<path d="M138.801 466.677C138.801 464.26 138.268 462.376 137.203 461.024C136.138 459.672 134.459 458.996 132.164 458.996C130.567 458.996 129.133 459.385 127.863 460.164C126.634 460.901 125.651 461.925 124.913 463.236C124.217 464.547 123.869 466.022 123.869 467.66V484.866H120.673V456.599H123.869V462.499C124.647 460.45 125.815 458.853 127.371 457.706C128.969 456.558 130.813 455.985 132.902 455.985C135.851 455.985 138.105 456.927 139.661 458.812C141.218 460.655 141.996 463.154 141.996 466.309V484.866H138.801V466.677Z" fill="white"/>
<path d="M168.339 486.71H171.596C171.596 488.472 172.006 490.049 172.825 491.442C173.645 492.835 174.792 493.941 176.266 494.76C177.782 495.579 179.523 495.989 181.49 495.989C183.251 495.989 184.91 495.579 186.467 494.76C188.024 493.941 189.294 492.65 190.277 490.889C191.301 489.168 191.813 486.956 191.813 484.252V456.599H195.009V484.252C195.009 487.488 194.374 490.192 193.104 492.363C191.834 494.576 190.175 496.235 188.126 497.341C186.078 498.447 183.866 499 181.49 499C178.909 499 176.615 498.488 174.607 497.464C172.641 496.44 171.105 494.985 169.998 493.101C168.892 491.257 168.339 489.127 168.339 486.71ZM167.663 470.733C167.663 467.66 168.278 465.039 169.507 462.867C170.736 460.655 172.375 458.955 174.423 457.767C176.512 456.579 178.806 455.985 181.305 455.985C183.763 455.985 185.873 456.64 187.635 457.951C189.396 459.221 190.769 460.962 191.752 463.175C192.776 465.387 193.288 467.906 193.288 470.733C193.288 473.519 192.776 476.038 191.752 478.291C190.769 480.504 189.396 482.265 187.635 483.576C185.873 484.846 183.763 485.481 181.305 485.481C178.806 485.481 176.512 484.887 174.423 483.699C172.375 482.511 170.736 480.811 169.507 478.599C168.278 476.386 167.663 473.765 167.663 470.733ZM170.92 470.733C170.92 473.191 171.391 475.301 172.334 477.062C173.317 478.824 174.628 480.176 176.266 481.118C177.946 482.019 179.769 482.47 181.735 482.47C183.497 482.47 185.136 481.958 186.651 480.934C188.208 479.91 189.458 478.517 190.4 476.755C191.342 474.953 191.813 472.904 191.813 470.61C191.813 468.971 191.547 467.456 191.014 466.063C190.482 464.67 189.724 463.441 188.741 462.376C187.799 461.311 186.713 460.491 185.484 459.918C184.296 459.303 183.046 458.996 181.735 458.996C179.769 458.996 177.946 459.467 176.266 460.409C174.628 461.311 173.317 462.642 172.334 464.404C171.391 466.165 170.92 468.275 170.92 470.733Z" fill="white"/>
<path d="M204.879 476.386C204.879 477.779 205.186 478.947 205.8 479.889C206.456 480.831 207.316 481.548 208.381 482.04C209.487 482.49 210.696 482.716 212.007 482.716C213.605 482.716 215.059 482.347 216.37 481.61C217.722 480.872 218.807 479.787 219.627 478.353C220.446 476.919 220.856 475.157 220.856 473.068L221.593 475.772C221.593 477.984 221.06 479.807 219.995 481.241C218.93 482.675 217.599 483.74 216.001 484.436C214.403 485.133 212.785 485.481 211.147 485.481C209.549 485.481 208.013 485.153 206.538 484.498C205.063 483.801 203.875 482.798 202.974 481.487C202.072 480.176 201.622 478.517 201.622 476.509C201.622 473.765 202.564 471.593 204.448 469.996C206.374 468.398 208.975 467.599 212.253 467.599C214.096 467.599 215.673 467.824 216.984 468.275C218.336 468.685 219.442 469.156 220.303 469.688C221.163 470.221 221.777 470.672 222.146 471.04V473.068C220.753 472.085 219.258 471.368 217.66 470.917C216.103 470.426 214.465 470.18 212.744 470.18C211.147 470.18 209.754 470.405 208.566 470.856C207.419 471.307 206.517 471.982 205.862 472.884C205.206 473.785 204.879 474.953 204.879 476.386ZM205.001 461.761L203.404 459.365C204.469 458.627 205.841 457.89 207.521 457.153C209.242 456.374 211.351 455.985 213.85 455.985C215.981 455.985 217.804 456.333 219.319 457.03C220.835 457.726 222.003 458.73 222.822 460.041C223.641 461.352 224.051 462.949 224.051 464.834V484.866H220.856V465.264C220.856 464.445 220.733 463.666 220.487 462.929C220.241 462.15 219.831 461.454 219.258 460.84C218.725 460.225 217.988 459.733 217.046 459.365C216.103 458.996 214.956 458.812 213.605 458.812C212.212 458.812 210.962 458.976 209.856 459.303C208.75 459.631 207.787 460.02 206.968 460.471C206.19 460.921 205.534 461.352 205.001 461.761Z" fill="white"/>
<path d="M236.027 456.599V484.866H232.832V456.599H236.027ZM245.429 460.348C244.814 459.897 244.22 459.57 243.647 459.365C243.114 459.119 242.479 458.996 241.742 458.996C240.349 458.996 239.222 459.385 238.362 460.164C237.543 460.942 236.949 461.987 236.58 463.298C236.211 464.608 236.027 466.063 236.027 467.66H234.552C234.552 465.407 234.9 463.42 235.597 461.7C236.293 459.938 237.236 458.545 238.424 457.521C239.653 456.497 241.005 455.985 242.479 455.985C243.381 455.985 244.22 456.128 244.999 456.415C245.818 456.661 246.556 457.091 247.211 457.706L245.429 460.348Z" fill="white"/>
<path d="M274.327 436.935H277.522V484.866H274.327V436.935ZM250.177 470.733C250.177 467.66 250.791 465.039 252.02 462.867C253.249 460.655 254.888 458.955 256.936 457.767C259.026 456.579 261.32 455.985 263.819 455.985C266.277 455.985 268.387 456.64 270.148 457.951C271.91 459.221 273.282 460.962 274.265 463.175C275.29 465.387 275.802 467.906 275.802 470.733C275.802 473.519 275.29 476.038 274.265 478.291C273.282 480.504 271.91 482.265 270.148 483.576C268.387 484.846 266.277 485.481 263.819 485.481C261.32 485.481 259.026 484.887 256.936 483.699C254.888 482.511 253.249 480.811 252.02 478.599C250.791 476.386 250.177 473.765 250.177 470.733ZM253.434 470.733C253.434 473.191 253.905 475.301 254.847 477.062C255.83 478.824 257.141 480.176 258.78 481.118C260.46 482.019 262.283 482.47 264.249 482.47C266.011 482.47 267.649 481.958 269.165 480.934C270.722 479.91 271.971 478.517 272.913 476.755C273.856 474.994 274.327 472.986 274.327 470.733C274.327 468.48 273.856 466.472 272.913 464.711C271.971 462.949 270.722 461.556 269.165 460.532C267.649 459.508 266.011 458.996 264.249 458.996C262.283 458.996 260.46 459.467 258.78 460.409C257.141 461.311 255.83 462.642 254.847 464.404C253.905 466.165 253.434 468.275 253.434 470.733Z" fill="white"/>
<path d="M297.531 485.481C294.991 485.481 292.738 484.846 290.772 483.576C288.806 482.306 287.249 480.565 286.102 478.353C284.996 476.1 284.443 473.539 284.443 470.672C284.443 467.804 285.016 465.264 286.163 463.052C287.31 460.84 288.908 459.119 290.956 457.89C293.005 456.62 295.36 455.985 298.023 455.985C300.604 455.985 302.857 456.579 304.783 457.767C306.749 458.955 308.265 460.614 309.33 462.744C310.436 464.834 310.989 467.251 310.989 469.996C310.989 470.241 310.969 470.508 310.928 470.794C310.928 471.081 310.907 471.327 310.866 471.532H286.47V468.767H308.47L307.118 470.672C307.2 470.467 307.281 470.2 307.363 469.873C307.486 469.504 307.548 469.156 307.548 468.828C307.548 466.903 307.118 465.182 306.257 463.666C305.438 462.15 304.311 460.962 302.878 460.102C301.444 459.242 299.826 458.812 298.023 458.812C295.934 458.812 294.111 459.303 292.554 460.286C291.038 461.229 289.85 462.581 288.99 464.342C288.13 466.063 287.699 468.111 287.699 470.487C287.699 472.904 288.109 475.014 288.928 476.817C289.789 478.619 290.977 480.012 292.492 480.995C294.049 481.978 295.852 482.47 297.9 482.47C300.071 482.47 301.956 481.999 303.554 481.057C305.192 480.114 306.647 478.64 307.917 476.632L310.497 478.291C308.9 480.749 307.036 482.572 304.905 483.76C302.816 484.907 300.358 485.481 297.531 485.481Z" fill="white"/>
<path d="M336.353 466.677C336.353 464.26 335.821 462.376 334.756 461.024C333.691 459.672 332.011 458.996 329.717 458.996C328.119 458.996 326.685 459.385 325.415 460.164C324.186 460.901 323.203 461.925 322.466 463.236C321.769 464.547 321.421 466.022 321.421 467.66V484.866H318.226V456.599H321.421V462.499C322.199 460.45 323.367 458.853 324.924 457.706C326.521 456.558 328.365 455.985 330.454 455.985C333.404 455.985 335.657 456.927 337.214 458.812C338.771 460.655 339.549 463.154 339.549 466.309V484.866H336.353V466.677Z" fill="white"/>
<path d="M349.189 476.817C349.599 477.841 350.152 478.783 350.848 479.643C351.545 480.504 352.426 481.2 353.491 481.733C354.597 482.265 355.887 482.531 357.362 482.531C359.083 482.531 360.455 482.101 361.479 481.241C362.544 480.34 363.077 479.111 363.077 477.554C363.077 476.407 362.749 475.465 362.094 474.727C361.438 473.949 360.578 473.314 359.513 472.822C358.448 472.29 357.301 471.819 356.072 471.409C354.761 470.917 353.491 470.364 352.262 469.75C351.033 469.135 350.009 468.316 349.189 467.292C348.411 466.227 348.022 464.854 348.022 463.175C348.022 461.577 348.411 460.245 349.189 459.18C350.009 458.115 351.053 457.337 352.323 456.845C353.634 456.313 355.027 456.046 356.502 456.046C358.1 456.046 359.533 456.313 360.803 456.845C362.073 457.378 363.159 458.074 364.06 458.935C364.962 459.795 365.658 460.758 366.15 461.823L363.507 463.42C362.852 462.191 361.93 461.126 360.742 460.225C359.554 459.324 358.018 458.873 356.133 458.873C354.74 458.873 353.552 459.221 352.569 459.918C351.627 460.614 351.156 461.638 351.156 462.99C351.156 464.096 351.463 465.018 352.078 465.756C352.692 466.452 353.511 467.025 354.535 467.476C355.56 467.927 356.645 468.357 357.792 468.767C359.308 469.34 360.701 469.975 361.971 470.672C363.282 471.368 364.327 472.228 365.105 473.252C365.924 474.277 366.334 475.588 366.334 477.185C366.334 479.643 365.474 481.651 363.753 483.207C362.073 484.723 359.882 485.481 357.178 485.481C355.211 485.481 353.491 485.133 352.016 484.436C350.582 483.74 349.415 482.839 348.513 481.733C347.653 480.626 347.018 479.479 346.608 478.291L349.189 476.817Z" fill="white"/>
</svg>
