<svg width="139" height="118" viewBox="0 0 139 118" fill="none" xmlns="http://www.w3.org/2000/svg">
<path d="M55.3426 2.14545C45.9043 10.7273 38.6111 20.3103 33.463 30.8945C28.3148 41.4788 25.7407 51.2048 25.7407 60.0727C28.0288 58.9285 31.1749 58.3564 35.179 58.3564C42.9012 58.3564 49.3364 61.0739 54.4846 66.5091C59.6327 71.9442 62.2068 78.8097 62.2068 87.1055C62.2068 96.2594 59.2037 103.697 53.1975 109.418C47.4774 115.139 40.1842 118 31.3179 118C21.5936 118 13.8714 114.996 8.15124 108.989C2.71708 102.982 0 95.4012 0 86.2473C0 68.2254 3.28909 51.92 9.86728 37.3309C16.7315 22.7418 25.7407 11.2994 36.8951 3.00362C39.1831 1.00121 42.6152 0 47.1914 0C50.9095 0 53.6265 0.715151 55.3426 2.14545ZM132.136 2.14545C122.698 10.7273 115.404 20.3103 110.256 30.8945C105.108 41.4788 102.534 51.2048 102.534 60.0727C104.822 58.9285 107.968 58.3564 111.972 58.3564C119.694 58.3564 126.13 61.0739 131.278 66.5091C136.426 71.9442 139 78.8097 139 87.1055C139 96.2594 135.997 103.697 129.991 109.418C124.271 115.139 116.977 118 108.111 118C98.3868 118 90.6646 114.996 84.9445 108.989C79.5103 102.982 76.7932 95.4012 76.7932 86.2473C76.7932 68.2254 80.0823 51.92 86.6605 37.3309C93.5247 22.7418 102.534 11.2994 113.688 3.00362C115.976 1.00121 119.408 0 123.985 0C127.703 0 130.42 0.715151 132.136 2.14545Z" fill="#242C12"/>
</svg>
